<svg xmlns="http://www.w3.org/2000/svg" viewBox="0 0 64 64">
  <rect width="64" height="64" rx="12" fill="#050816"/>
  <path d="M18 14h18c8 0 13 4.2 13 11 0 4.5-2.4 7.8-6.6 9.3C47.5 35.5 51 39.4 51 45c0 8-5.9 13-15.2 13H18V14zm15.7 17c4.4 0 6.9-1.9 6.9-5.2 0-3.3-2.5-5.1-6.9-5.1H27v10.3h6.7zm1.4 20c4.8 0 7.4-2 7.4-5.8 0-3.7-2.6-5.8-7.4-5.8H27V51h8.1z" fill="#00f3ff"/>
  <path d="M18 14h18c8 0 13 4.2 13 11 0 4.5-2.4 7.8-6.6 9.3C47.5 35.5 51 39.4 51 45c0 8-5.9 13-15.2 13H18V14z" fill="none" stroke="#ff00d4" stroke-width="2"/>
</svg>
